<?xml version="1.0" standalone="no"?>
<!DOCTYPE svg PUBLIC "-//W3C//DTD SVG 20010904//EN"
 "http://www.w3.org/TR/2001/REC-SVG-20010904/DTD/svg10.dtd">
<svg version="1.0" xmlns="http://www.w3.org/2000/svg"
 width="460.000000pt" height="460.000000pt" viewBox="0 0 460.000000 460.000000"
 preserveAspectRatio="xMidYMid meet">
<metadata>
Created by potrace 1.14, written by Peter Selinger 2001-2017
</metadata>
<g transform="translate(0.000000,460.000000) scale(0.100000,-0.100000)"
fill="#000000" stroke="none">
<path d="M550 4576 c0 -14 7 -26 18 -28 39 -10 50 -87 59 -383 4 -154 7 -302
6 -329 -2 -64 -23 -86 -79 -86 -64 0 -71 -17 -80 -183 -5 -103 -4 -148 6 -178
12 -36 12 -42 -7 -67 -26 -35 -65 -36 -75 -2 -12 45 -28 195 -28 269 0 88 -26
207 -50 231 -10 10 -43 25 -75 34 l-56 17 3 37 3 37 62 -3 c73 -4 91 13 54 52
-13 14 -21 35 -21 58 0 26 -6 39 -22 50 -61 38 -207 83 -241 74 -20 -5 -24
-12 -23 -40 2 -38 41 -78 88 -89 33 -9 60 -34 56 -54 -2 -12 -20 -15 -76 -16
l-72 -1 0 -37 c0 -35 2 -37 39 -43 21 -3 41 -13 45 -21 7 -21 -36 -65 -64 -65
-20 0 -20 -5 -20 -226 0 -223 0 -225 20 -219 58 18 67 -56 15 -114 l-35 -38 0
-122 c0 -95 3 -121 13 -121 29 0 46 -33 38 -76 -10 -51 -19 -67 -37 -60 -12 5
-14 -190 -14 -1329 l0 -1334 27 -21 c26 -20 27 -26 25 -86 l-3 -64 60 0 c61 0
61 0 61 29 0 19 8 34 25 45 31 20 32 20 31 -6 -1 -17 5 -24 22 -26 12 -2 28
-12 35 -23 12 -19 40 -19 1334 -19 l1323 0 0 38 c0 20 -5 93 -10 162 -6 69
-12 328 -15 577 -2 300 -7 459 -15 473 -13 24 -25 25 -64 5 -16 -9 -31 -13
-33 -11 -3 2 -7 22 -10 44 -7 50 33 142 71 167 30 20 50 75 42 118 -3 18 -8
142 -12 277 -5 211 -4 250 10 282 9 21 16 50 16 67 0 16 7 42 15 57 20 40 21
287 1 326 -8 14 -19 43 -26 65 -7 21 -20 46 -29 57 -13 14 -15 37 -13 112 3
86 2 94 -16 94 -10 0 -31 -13 -47 -30 -16 -16 -32 -30 -37 -30 -14 0 -9 37 7
50 9 7 15 29 15 53 0 22 10 70 21 106 26 79 117 273 133 283 19 12 36 -16 46
-78 16 -105 13 -1001 -5 -1203 -3 -37 0 -64 10 -84 10 -21 13 -48 10 -86 -7
-77 -7 -109 -2 -1033 3 -449 8 -826 12 -837 6 -20 13 -21 151 -21 l144 0 0 36
c0 48 -16 74 -45 74 -38 0 -40 19 -4 57 l34 34 -2 212 c-2 117 -5 250 -7 297
-3 47 -8 177 -11 290 -3 113 -8 215 -11 227 -4 20 -70 63 -96 63 -21 0 -24
-55 -12 -200 9 -104 10 -167 3 -192 -5 -20 -8 -56 -8 -80 1 -24 -4 -54 -11
-68 l-13 -24 -18 23 c-18 22 -19 47 -21 360 -1 360 -1 423 3 486 1 22 -3 93
-9 158 -14 143 -5 179 49 192 52 13 53 13 65 -30 9 -32 15 -40 35 -40 21 0 24
5 27 46 4 67 -12 80 -91 72 -99 -9 -95 -21 -101 327 -4 162 -8 414 -11 560 -4
195 -2 312 10 445 24 281 25 305 27 503 1 187 -13 450 -32 592 -5 41 -10 99
-10 128 l0 52 -40 0 -40 0 0 -91 c0 -69 -5 -100 -20 -135 -12 -25 -25 -42 -29
-40 -5 3 -19 33 -31 66 l-23 61 -28 -26 c-23 -23 -38 -28 -99 -31 -78 -4 -106
8 -224 91 -43 32 -55 35 -116 35 -37 0 -83 -7 -102 -14 -19 -8 -45 -12 -56 -9
-12 3 -22 1 -22 -5 0 -17 -37 -24 -60 -12 -11 6 -20 21 -20 34 0 13 -6 26 -12
28 -7 3 -62 3 -122 1 l-109 -4 -52 -45 c-29 -24 -62 -44 -73 -44 -28 0 -138
-146 -147 -194 -12 -63 -19 -66 -115 -51 -98 15 -107 18 -215 69 -44 21 -109
51 -145 67 -36 16 -72 34 -80 39 -33 21 -193 90 -208 90 -5 0 -15 7 -22 15 -7
8 -24 15 -39 15 -25 0 -60 18 -88 46 -10 9 -7 13 12 18 56 14 21 26 -75 26
-99 0 -100 0 -100 -24z m251 -401 c25 -21 36 -23 78 -18 l50 6 6 -37 c8 -42
11 -43 41 -15 35 33 71 19 95 -36 16 -37 18 -48 7 -65 -7 -11 -16 -20 -20 -20
-4 0 -20 -18 -34 -40 -25 -37 -26 -46 -22 -123 2 -45 8 -88 12 -95 13 -22 36
7 36 45 0 38 24 103 43 115 17 11 65 10 72 -2 11 -18 64 -11 75 10 14 26 2 70
-19 70 -41 1 -65 50 -24 50 8 0 28 11 45 25 16 14 38 25 48 25 17 0 20 -10 22
-97 l3 -96 43 -15 c32 -10 43 -20 48 -40 12 -58 23 -75 47 -69 76 20 75 20 92
-7 13 -20 20 -60 25 -159 4 -72 13 -145 20 -162 26 -66 8 -255 -25 -255 -21 0
-87 32 -107 53 -21 20 -68 23 -68 5 0 -7 4 -20 10 -28 11 -17 -5 -40 -27 -40
-9 0 -30 -16 -47 -35 l-32 -34 -84 4 c-88 4 -109 17 -75 45 8 7 15 18 15 24 0
6 18 25 39 43 35 29 44 31 104 31 72 -2 86 4 68 26 -24 28 -73 27 -171 -4 -51
-16 -103 -30 -116 -30 -12 0 -35 -7 -50 -15 -16 -8 -37 -15 -47 -15 -23 0 -90
-34 -106 -54 -8 -9 -22 -16 -32 -16 -33 0 -82 -38 -93 -72 -9 -27 -18 -34 -51
-41 -22 -4 -53 -11 -68 -14 -26 -5 -28 -3 -25 18 3 21 10 25 51 30 49 5 71 23
62 48 -3 8 6 31 21 52 14 21 23 43 19 49 -9 15 -65 -47 -65 -72 0 -17 -5 -19
-27 -15 -18 3 -34 0 -45 -10 -9 -8 -38 -18 -63 -21 -25 -2 -48 -9 -51 -13 -3
-5 -16 -9 -29 -9 -13 0 -26 -4 -30 -9 -3 -5 -19 -12 -35 -16 -16 -4 -44 -20
-61 -36 -17 -16 -43 -32 -58 -35 -14 -4 -44 -15 -66 -25 -59 -25 -98 -28 -103
-7 -2 11 6 22 20 28 13 6 40 38 61 70 39 60 44 64 109 74 34 6 36 8 29 34 -7
24 -13 28 -60 32 -75 8 -97 42 -69 107 32 74 71 104 85 66 4 -10 24 -44 46
-76 31 -46 42 -55 53 -46 17 14 70 14 106 0 21 -8 38 -7 65 2 l38 12 5 96 c4
85 9 104 39 160 l34 64 5 292 c4 262 6 295 23 322 23 38 51 40 90 6z m749
-320 c0 -14 -4 -25 -10 -25 -5 0 -10 11 -10 25 0 14 5 25 10 25 6 0 10 -11 10
-25z m685 -589 c28 -37 69 -56 120 -56 17 0 40 -6 50 -14 18 -13 17 -14 -8
-31 -49 -32 -25 -74 50 -90 19 -4 35 -14 38 -25 6 -19 -9 -58 -23 -62 -22 -4
-66 -9 -133 -14 l-76 -6 -46 43 c-56 55 -72 106 -63 204 4 38 12 73 19 77 24
15 46 7 72 -26z m-2120 -146 c9 -15 -14 -40 -36 -40 -21 0 -25 20 -7 38 15 15
35 15 43 2z m1383 -20 c29 -5 57 -12 62 -15 13 -8 13 -42 0 -50 -6 -4 -8 -15
-5 -24 7 -24 -19 -44 -45 -36 -11 4 -40 25 -63 48 l-42 42 -5 -40 c-3 -22 -10
-40 -17 -40 -6 0 -25 18 -42 39 -35 44 -29 66 19 66 15 0 33 7 40 15 8 9 20
13 29 10 9 -4 40 -11 69 -15z m-271 -90 c63 -22 58 -100 -6 -100 -24 0 -31 -7
-45 -40 -9 -22 -22 -40 -29 -40 -7 0 -29 -13 -48 -30 -36 -29 -37 -29 -54 -10
-10 11 -31 20 -46 20 -16 0 -32 7 -38 17 -8 15 -13 15 -36 5 -49 -23 -63 -5
-23 30 27 24 132 88 144 88 4 0 17 9 28 19 50 47 98 60 153 41z m-642 -9 c7
-12 -12 -24 -25 -16 -11 7 -4 25 10 25 5 0 11 -4 15 -9z m168 -276 c-6 -16
-16 -19 -26 -8 -9 8 13 34 24 28 4 -3 6 -12 2 -20z m2057 -1650 c9 -10 13 -56
14 -143 1 -118 -1 -130 -22 -156 -27 -35 -28 -70 -3 -103 16 -19 18 -30 10
-49 -14 -38 -11 -75 7 -96 16 -16 16 -21 0 -63 -10 -25 -23 -48 -29 -52 -6 -3
-23 9 -39 27 -22 28 -28 44 -28 85 0 27 -12 84 -25 125 -14 41 -25 91 -25 111
0 44 23 112 49 145 12 15 22 49 26 87 3 34 9 70 11 80 6 21 37 22 54 2z"/>
<path d="M888 4063 c-36 -41 -29 -103 12 -103 25 0 40 29 40 79 0 33 -4 41
-18 41 -11 0 -26 -8 -34 -17z"/>
<path d="M380 3105 c7 -8 16 -15 21 -15 5 0 9 7 9 15 0 9 -9 15 -21 15 -18 0
-19 -2 -9 -15z"/>
<path d="M3622 4577 c-18 -19 -22 -35 -22 -88 0 -59 3 -68 30 -94 19 -19 30
-39 30 -57 0 -15 9 -37 21 -49 17 -17 28 -20 68 -14 26 3 59 2 75 -5 26 -9 28
-14 23 -47 -4 -20 -18 -48 -32 -63 -29 -30 -34 -83 -10 -106 8 -9 15 -26 15
-38 0 -13 9 -31 20 -41 11 -10 17 -22 14 -26 -9 -15 -43 -10 -53 9 -9 15 -10
14 -11 -8 0 -34 17 -92 34 -115 14 -19 15 -19 45 15 24 27 30 42 27 62 -4 20
2 36 20 58 31 36 44 37 88 8 30 -20 34 -27 33 -61 -2 -39 -2 -39 48 -52 30 -8
56 -10 66 -4 47 25 110 39 128 29 30 -16 77 -12 147 12 50 17 70 20 96 12 18
-5 43 -8 56 -6 l22 3 0 345 0 344 -279 0 c-319 0 -293 10 -284 -102 7 -92 -4
-114 -68 -127 -52 -12 -152 -6 -196 10 -22 8 -23 14 -23 114 l0 105 -53 0
c-43 0 -58 -5 -75 -23z m918 -212 c10 -12 8 -22 -11 -51 l-23 -37 22 -37 c12
-21 18 -40 15 -44 -13 -13 -51 -5 -68 14 -23 25 -32 25 -40 1 -8 -25 -35 -35
-50 -19 -17 20 -4 162 15 166 9 1 20 -9 27 -28 8 -20 18 -30 32 -30 17 0 21 6
21 33 0 19 3 37 7 40 11 12 40 8 53 -8z m-313 -27 c27 -29 75 -138 69 -155 -8
-20 -31 -16 -64 12 -34 29 -50 31 -78 10 -42 -32 -47 -3 -9 53 14 20 25 49 25
63 0 24 9 35 31 38 3 1 15 -9 26 -21z m43 -398 c0 -14 -7 -20 -24 -20 -25 0
-43 25 -23 34 28 11 47 5 47 -14z"/>
<path d="M3189 4218 c-2 -13 -3 -112 -1 -222 3 -140 7 -195 15 -187 5 5 12 61
14 123 2 62 4 120 5 128 1 22 -19 171 -25 176 -2 3 -6 -5 -8 -18z"/>
<path d="M4593 3720 c0 -41 2 -58 4 -37 2 20 2 54 0 75 -2 20 -4 3 -4 -38z"/>
<path d="M4315 3771 c-3 -6 -23 -9 -44 -9 -51 0 -61 -7 -61 -43 0 -43 31 -69
88 -71 46 -1 101 -5 152 -10 22 -3 25 2 33 45 7 33 6 57 -2 73 -10 22 -16 24
-85 24 -41 0 -77 -4 -81 -9z"/>
<path d="M3677 3663 c-4 -3 -7 -18 -7 -32 0 -31 41 -56 107 -66 35 -6 43 -3
53 14 10 19 8 21 -25 21 -29 0 -43 8 -69 35 -33 35 -47 41 -59 28z"/>
<path d="M3342 3588 c-16 -16 -15 -47 2 -77 l13 -24 7 35 c8 45 -4 84 -22 66z"/>
<path d="M4471 3554 c-12 -19 -21 -44 -21 -55 0 -28 -27 -89 -39 -89 -6 0 -15
-9 -21 -21 -14 -26 3 -49 35 -49 28 0 35 -15 23 -57 -7 -27 -4 -39 21 -79 31
-51 30 -68 -8 -123 -10 -14 -22 -37 -26 -51 -13 -42 -57 -113 -88 -143 -28
-26 -29 -32 -23 -81 4 -41 2 -57 -9 -66 -24 -20 -41 -5 -54 44 -15 61 -44 80
-113 74 -83 -8 -101 24 -117 211 -9 118 -26 148 -75 135 -38 -9 -43 -29 -17
-74 11 -21 21 -45 21 -54 0 -25 -93 -116 -118 -116 -32 0 -42 30 -42 121 0 78
-1 82 -17 67 -18 -19 -19 -29 -27 -283 -3 -99 -8 -256 -11 -348 -3 -103 -1
-176 5 -187 12 -22 2 -30 -44 -39 -23 -5 -39 -19 -61 -53 -16 -26 -40 -52 -52
-59 -19 -10 -25 -8 -45 16 -24 28 -24 28 -60 11 -21 -10 -53 -16 -74 -14 l-39
3 -6 85 c-4 72 -2 91 14 122 20 36 20 36 -2 64 -14 18 -21 41 -21 72 0 25 -3
43 -6 40 -3 -3 -6 -102 -6 -220 l-1 -213 42 3 c62 5 88 -4 95 -33 9 -34 48
-34 66 0 12 23 15 24 36 10 12 -8 38 -14 57 -13 43 1 57 -7 57 -36 0 -37 -22
-47 -92 -44 l-63 3 3 -40 c2 -29 -4 -50 -20 -75 -35 -52 -48 -50 -48 7 l0 49
-64 41 c-53 34 -65 38 -68 25 -8 -31 -1 -811 11 -1210 7 -216 10 -474 7 -575
-3 -100 -3 -199 1 -219 l6 -38 181 1 c178 0 182 1 230 28 28 15 51 32 53 38 2
5 -14 22 -35 36 -30 19 -41 35 -46 63 -4 20 -14 47 -22 59 -14 21 -13 23 11
29 15 4 32 21 44 45 11 21 29 41 41 44 24 6 27 48 5 71 -15 15 -20 52 -9 79 4
12 11 13 33 4 38 -14 87 6 107 44 8 16 17 61 20 102 6 68 9 74 38 92 31 19 31
19 7 23 -36 6 -98 48 -106 72 -10 32 2 40 59 40 l52 0 59 102 58 102 -7 70
c-4 39 -9 89 -11 111 -13 135 -18 142 -97 143 -52 0 -57 -7 -36 -53 7 -16 17
-24 26 -20 28 11 59 -21 66 -68 9 -59 -2 -127 -21 -127 -16 0 -83 67 -83 83 0
5 -16 24 -36 41 -29 25 -37 40 -41 79 -7 59 -22 56 -46 -9 -16 -45 -16 -51 -2
-76 11 -20 13 -33 5 -52 -9 -23 -15 -26 -62 -26 -29 0 -58 4 -64 8 -7 4 -20
36 -29 70 -17 60 -17 67 -2 116 10 29 17 78 17 108 0 42 6 64 24 90 23 35 23
37 9 94 -8 33 -20 65 -26 72 -16 19 3 28 60 27 l48 0 -3 -45 c-4 -54 22 -126
57 -160 14 -14 34 -40 43 -58 20 -38 35 -40 69 -8 14 13 35 27 47 30 12 4 22
11 22 16 0 5 18 30 40 55 22 25 40 50 40 55 0 15 42 34 75 34 23 1 33 8 44 30
43 91 29 146 -37 146 -47 0 -82 24 -82 55 0 30 -29 47 -68 39 -27 -5 -30 -3
-46 37 -13 31 -17 69 -16 134 2 117 -9 225 -26 249 -11 16 -10 23 5 45 10 14
26 39 35 54 10 16 34 36 54 44 20 8 43 20 51 27 8 6 30 11 49 11 32 0 36 4 49
40 22 64 35 72 77 50 71 -39 121 11 118 118 -1 44 2 59 14 64 18 7 41 -21 48
-62 8 -40 32 -74 61 -85 13 -5 25 -19 28 -32 2 -13 5 100 6 250 0 152 -3 271
-8 268 -4 -3 -16 3 -26 14 -15 16 -15 22 -5 35 7 8 19 15 26 15 11 0 14 20 14
90 0 60 -4 90 -11 90 -8 0 -10 12 -6 33 8 51 -3 87 -28 97 -13 5 -26 18 -30
29 -10 34 -32 32 -54 -5z m-568 -1525 c24 -34 33 -108 15 -131 -9 -11 -37 -18
-100 -23 -84 -7 -88 -6 -113 19 -27 27 -33 64 -13 84 7 7 30 12 51 12 33 0 45
6 71 35 36 40 61 41 89 4z m-388 -313 c31 -14 35 -19 35 -54 0 -43 -20 -68
-60 -74 -14 -2 -34 -17 -47 -36 l-22 -33 -5 38 c-4 21 -10 62 -16 92 -8 47 -7
56 8 67 23 18 65 17 107 0z m-24 -428 c6 -24 15 -56 20 -72 15 -48 10 -74 -16
-101 -50 -50 -63 -33 -65 85 -3 97 -3 96 16 114 24 24 32 20 45 -26z m46 -915
c2 -6 -3 -13 -12 -16 -10 -5 -15 0 -15 14 0 21 21 22 27 2z m168 -72 c7 -12
-12 -24 -25 -16 -11 7 -4 25 10 25 5 0 11 -4 15 -9z"/>
<path d="M3840 3566 c0 -8 -6 -17 -12 -19 -7 -3 -3 -6 8 -6 21 -1 39 21 27 33
-11 11 -23 6 -23 -8z"/>
<path d="M3763 3364 c-7 -3 -13 -23 -13 -44 0 -50 23 -65 78 -51 20 5 66 12
102 16 70 7 90 17 90 45 0 15 -13 19 -77 24 -43 4 -98 8 -123 11 -25 2 -51 2
-57 -1z"/>
<path d="M3341 3326 c-11 -13 -11 -32 -3 -88 5 -40 7 -153 5 -250 -3 -97 -2
-207 2 -244 7 -68 7 -68 20 -37 12 27 20 33 60 39 26 3 66 4 89 1 69 -10 80 4
65 85 -10 57 -10 73 4 116 33 100 23 132 -44 132 -42 0 -50 -3 -65 -28 -24
-42 -46 -53 -75 -38 -31 15 -41 79 -33 202 7 99 -2 138 -25 110z"/>
<path d="M3524 3302 c-37 -25 -46 -105 -13 -122 29 -16 68 -4 78 23 15 39 -13
107 -44 107 -5 0 -15 -4 -21 -8z"/>
<path d="M14 2899 c-3 -6 -1 -16 5 -22 8 -8 11 -5 11 11 0 24 -5 28 -16 11z"/>
<path d="M4466 1955 c-28 -30 -34 -69 -13 -82 6 -4 32 -10 57 -13 l45 -5 22
-65 22 -65 1 108 c0 123 -6 136 -70 144 -33 5 -42 1 -64 -22z"/>
<path d="M3163 1623 c-21 -8 -15 -28 17 -51 17 -13 34 -39 41 -62 7 -22 17
-39 23 -37 13 4 28 84 21 114 -5 21 -12 25 -75 38 -8 2 -21 1 -27 -2z"/>
<path d="M3790 1307 c0 -14 7 -28 16 -31 12 -5 15 0 12 21 -4 35 -28 43 -28
10z"/>
<path d="M4068 258 c-12 -9 -18 -31 -19 -73 -3 -57 -2 -60 29 -78 28 -17 32
-24 32 -63 0 -24 4 -44 9 -44 11 0 24 67 16 80 -7 12 39 24 60 16 10 -4 15
-20 15 -51 0 -41 2 -45 25 -45 19 0 26 7 34 37 6 21 11 44 11 51 0 14 19 16
39 3 10 -7 12 -20 7 -50 l-6 -41 36 0 37 0 -6 45 c-7 48 1 60 33 50 15 -5 20
-15 20 -43 0 -24 3 -32 9 -24 4 7 6 24 3 37 -3 19 1 25 22 31 39 9 56 -1 56
-36 0 -16 3 -30 6 -30 10 0 31 26 38 48 4 12 12 22 17 22 19 0 9 45 -13 55
-15 7 -23 19 -23 35 0 18 6 26 23 28 15 2 22 10 22 26 l0 22 -258 2 c-194 2
-262 -1 -274 -10z m302 -53 c10 -12 10 -18 0 -30 -24 -29 -58 -7 -44 30 4 8
12 15 19 15 7 0 18 -7 25 -15z m-105 -36 c0 -8 -10 -15 -22 -17 -25 -4 -33 22
-10 31 18 8 32 2 32 -14z"/>
<path d="M4540 10 c0 -5 5 -10 11 -10 5 0 7 5 4 10 -3 6 -8 10 -11 10 -2 0 -4
-4 -4 -10z"/>
</g>
</svg>
